<svg xmlns="http://www.w3.org/2000/svg" viewBox="0 0 1080 1920"><defs><style>.cls-1{fill:none;}.cls-2{fill:#132a44;}.cls-3{fill:#132b45;}.cls-4{fill:#142b46;}.cls-5{fill:#142c47;}.cls-6{fill:#152d48;}.cls-7{fill:#152d49;}.cls-8{fill:#162e4a;}.cls-9{fill:#162f4b;}.cls-10{fill:#162f4c;}.cls-11{fill:#17304d;}.cls-12{fill:#17314e;}.cls-13{fill:#18314f;}.cls-14{fill:#183250;}.cls-15{fill:#193251;}.cls-16{fill:#193352;}.cls-17{fill:#193453;}.cls-18{fill:#1a3454;}.cls-19{fill:#1a3555;}.cls-20{fill:#1b3656;}.cls-21{fill:#1b3657;}.cls-22{fill:#1c3758;}.cls-23{fill:#1c3859;}.cls-24{fill:#1c385a;}.cls-25{fill:#1d395b;}.cls-26{fill:#1d3a5c;}.cls-27{fill:#1e3a5d;}.cls-28{fill:#1e3b5e;}.cls-29{fill:#1f3c5f;}.cls-30{fill:#1f3c60;}.cls-31{fill:#1f3d61;}.cls-32{fill:#203d62;}.cls-33{fill:#203e63;}.cls-34{fill:#213f64;}.cls-35{fill:#213f65;}.cls-36{fill:#224066;}.cls-37{fill:#224167;}.cls-38{fill:#224168;}.cls-39{fill:#234269;}.cls-40{fill:#23436a;}.cls-41{fill:#24436b;}.cls-42{fill:#24446c;}.cls-43{fill:#25456d;}.cls-44{fill:#25456e;}.cls-45{fill:#25466f;}.cls-46{fill:#284a76;}.cls-47{fill:#284a77;}.cls-48{fill:#294b78;}.cls-49{fill:#294c79;}.cls-50{fill:#2a4c7a;}.cls-51{fill:#2a4d7b;}.cls-52{fill:#2b4e7c;}.cls-53{fill:#2b4e7d;}.cls-54{fill:#2b4f7e;}.cls-55{fill:#2c507f;}.cls-56{fill:#2c5080;}.cls-57{fill:#0d2136;}.cls-58{fill:#0d2237;}.cls-59{fill:#0e2238;}.cls-60{fill:#0e2339;}.cls-61{fill:#0f243a;}.cls-62{fill:#0f243b;}.cls-63{fill:#10253c;}.cls-64{fill:#10263d;}.cls-65{fill:#10263e;}.cls-66{fill:#11273f;}.cls-67{fill:#112740;}.cls-68{fill:#122841;}.cls-69{fill:#122942;}.cls-70{fill:#132943;}.cls-71{fill:#f7af4a;}.cls-72{fill:#e08c2b;}.cls-73{fill:#c46729;}.cls-74{fill:#ab560c;}.cls-75{fill:#73b2f5;}.cls-76{fill:#4376b0;}.cls-77{fill:#164377;}.cls-78{fill:#106397;}.cls-79{fill:#f0f1f1;}.cls-80{fill:#d2d3d3;}.cls-81{fill:#fff;}.cls-82{fill:#182b3a;}</style></defs><title>Layer 2 (2)</title><g id="Layer_2" data-name="Layer 2"><g id="Layer_2-2" data-name="Layer 2"><path class="cls-1" d="M0,1920H126.09a35.89,35.89,0,0,1,48.89-8.17,142.53,142.53,0,0,1,47.14-48.47,66.74,66.74,0,0,1,0-13.92,65.75,65.75,0,0,1,6.21-21.91q-1.71-9.6-3.35-19.23-2.25-13.2-4.34-26.43-2.16-13.56-4.17-27.16-2.05-13.95-4-27.93-.91-6.81-1.82-13.61-1-7.62-1.89-15.36c-1.21-10.52-2.25-21.18-3-31.88-.9-13.14-1.35-26.33-1.11-39.4.58-31.83,5.25-62.92,17.36-90.69,3.34-26.45,10.53-51.69,23.65-74.11A149.88,149.88,0,0,1,259,1442.51l.5-.63A157,157,0,0,1,271,1429.56c3.61-3.52,7.38-6.88,11.26-10.1q5.31-4.39,10.89-8.49,5.23-3.85,10.67-7.5,5.19-3.49,10.51-6.86t10.43-6.47q5.18-3.15,10.39-6.28t10.38-6.26q4-2.4,7.91-4.85a86.43,86.43,0,0,1,9.5-12.68l4.22-4.65,7-7.77c-45.59-39.07-87.31-87.73-122.48-143.94a723.47,723.47,0,0,1-91.34-222.22l-.12-.53h0a714.42,714.42,0,0,1,229.2,70.55,660.34,660.34,0,0,1,77,45.81q2.15-7,4.58-13.92c4.68-25.13,11.53-50.06,21.27-73.26a252.17,252.17,0,0,1,16.4-32.5,209,209,0,0,1,13.47-19.77,187.71,187.71,0,0,1,12.23-14.32q5.48-5.79,11.48-11.08,5.28-4.63,11-8.84c3-2.23,6.15-4.38,9.36-6.42l1.23-.75c3.37-2.1,6.81-4.07,10.31-6q5-2.65,10.11-5.08,4.93-2.32,10-4.48t9.89-4.1c3.27-1.32,6.55-2.6,9.83-3.88l9.81-3.77q4.92-1.89,9.82-3.81t9.86-4c3.34-1.39,6.65-2.81,9.93-4.29s6.74-3.12,10-4.79q5.21-2.62,10.22-5.54,5.37-3.13,10.47-6.67a131.37,131.37,0,0,0,10.89-8.47c1.58-1.38,3.14-2.78,4.66-4.25,2.45-2.37,4.74-4.81,6.93-7.31a125.14,125.14,0,0,0,13.08-18,148.34,148.34,0,0,0,9.82-19.71c2.74-16.52,4.76-33.5,7-50.43,3.86-28.46,8.53-56.79,18.85-82.57,3.42-20.2,8-40,15.55-58.4a159.32,159.32,0,0,1,11.11-22.07A167.22,167.22,0,0,1,798.9,570q5.55-6.86,11.77-13.15a29.63,29.63,0,1,1,47.68-34.93q2.94-1.51,5.92-2.92,4.9-2.34,10-4.4,4.85-2,9.79-3.69,4.79-1.67,9.65-3.08t9.51-2.47q4.68-1.1,9.39-1.95t9.28-1.44q4.57-.59,9.16-.93t9-.46c3-.08,6-.08,9,0s5.89.23,8.84.46,5.83.53,8.73.92,5.77.83,8.63,1.37,5.7,1.14,8.53,1.83c1.76.43,3.5.89,5.25,1.38.55-.69,1.11-1.39,1.68-2.07a50.14,50.14,0,1,1,13.53-99.05,72.32,72.32,0,0,1,32.7-18.23,32.29,32.29,0,0,1,43.11-39.5V0H0Zm177.67-87.2a24.36,24.36,0,1,1-24.34-24.51A24.42,24.42,0,0,1,177.67,1832.8Z"/><path class="cls-2" d="M989,506.49c-1.75-.49-3.49-.95-5.25-1.38l-3,12.93Q984.6,512.05,989,506.49Z"/><path class="cls-3" d="M980.38,518.63l.39-.59,3-12.93q-4.25-1-8.53-1.83l-5.49,24Q974.87,522.74,980.38,518.63Z"/><path class="cls-4" d="M958.24,538.29q5.47-5.79,11.47-11l5.49-24c-2.86-.54-5.74-1-8.63-1.37Z"/><path class="cls-5" d="M958.24,538.29l8.33-36.38c-2.9-.39-5.82-.69-8.73-.92L946,552.78A168.29,168.29,0,0,1,958.24,538.29Z"/><path class="cls-6" d="M941.64,558l.52,0q1.86-2.67,3.81-5.27L957.84,501c-3-.23-5.89-.38-8.84-.46l-13.1,57.16Q938.78,557.79,941.64,558Z"/><path class="cls-7" d="M930.81,557.58c1.7,0,3.39,0,5.09.11L949,500.53c-3-.08-6-.08-9,0L927,557.59C928.25,557.57,929.53,557.57,930.81,557.58Z"/><path class="cls-8" d="M919.81,557.83q3.59-.2,7.17-.24l13.07-57.06q-4.53.11-9,.46l-13,57Z"/><path class="cls-9" d="M908.81,558.79q4.56-.54,9.14-.84l13-57q-4.59.35-9.16.93Z"/><path class="cls-10" d="M908.62,558.81l.19,0,13-56.87q-4.65.6-9.28,1.44l-13,56.75C902.57,559.6,905.6,559.17,908.62,558.81Z"/><path class="cls-11" d="M897.26,560.51l2.3-.4,13-56.75q-4.71.86-9.39,1.95l-13,56.62C892.54,561.41,894.9,560.94,897.26,560.51Z"/><path class="cls-12" d="M885.7,563c1.5-.37,3-.72,4.5-1.06l13-56.62q-4.78,1.11-9.51,2.47l-12.95,56.53Q883.2,563.62,885.7,563Z"/><path class="cls-13" d="M873.94,566.31q3.36-1.06,6.77-2l12.95-56.53q-4.86,1.41-9.65,3.08l-12.92,56.38Q872.51,566.76,873.94,566.31Z"/><path class="cls-14" d="M861.94,570.55q4.53-1.77,9.15-3.31L884,510.86q-4.93,1.71-9.79,3.69l-12.89,56.24Z"/><path class="cls-15" d="M862.89,537.71a29.74,29.74,0,0,1-7.43,19.67l-4,17.64q4.89-2.25,9.91-4.23l12.89-56.24q-5,2.06-10,4.4L861.8,529.7A29.84,29.84,0,0,1,862.89,537.71Z"/><path class="cls-16" d="M861.8,529.7,864.27,519q-3,1.41-5.92,2.92A29.4,29.4,0,0,1,861.8,529.7Z"/><path class="cls-16" d="M849.68,575.84l1.74-.82,4-17.64a29.67,29.67,0,0,1-10.72,7.74L841.32,580Q845.46,577.84,849.68,575.84Z"/><path class="cls-17" d="M837.12,582.33c1.39-.79,2.79-1.55,4.2-2.3l3.42-14.91a29.23,29.23,0,0,1-9.46,2.23L831,585.92Q834,584.08,837.12,582.33Z"/><path class="cls-18" d="M824.19,590.31c2.25-1.51,4.53-3,6.84-4.39l4.25-18.57c-.66,0-1.32.07-2,.07a29.06,29.06,0,0,1-6.78-.8l-6,26.24Q822.34,591.57,824.19,590.31Z"/><path class="cls-19" d="M810.79,600.21q4.73-3.83,9.7-7.35l6-26.24a29.1,29.1,0,0,1-8.19-3.31l-8.67,37.82Z"/><path class="cls-20" d="M818.32,563.31a29.6,29.6,0,0,1-7.5-6.33l-12.41,54.18c3.6-3.49,7.36-6.84,11.24-10Z"/><path class="cls-21" d="M796.7,612.83c.56-.56,1.14-1.11,1.71-1.67L810.82,557l-.15-.18q-6.21,6.29-11.77,13.15L786.57,623.8C789.79,620,793.16,616.34,796.7,612.83Z"/><path class="cls-22" d="M781.44,630.13q2.49-3.23,5.13-6.33L798.9,570a167.22,167.22,0,0,0-13.27,18.92l-12,52.22Q777.34,635.45,781.44,630.13Z"/><path class="cls-23" d="M733.07,802.34a148.34,148.34,0,0,1-9.82,19.71l-11.76,51.32C722.9,852,728.86,827.75,733.07,802.34Z"/><path class="cls-23" d="M763.06,660a162.17,162.17,0,0,1,10.6-18.88l12-52.22a159.32,159.32,0,0,0-11.11,22.07c-7.54,18.43-12.13,38.2-15.55,58.4l.51-1.29Q761.16,664,763.06,660Z"/><path class="cls-24" d="M708.49,878.7c1-1.76,2-3.53,3-5.33l11.76-51.32a125.14,125.14,0,0,1-13.08,18L697.81,894A126,126,0,0,0,708.49,878.7Z"/><path class="cls-25" d="M688.21,904.5c1.34-1.3,2.63-2.62,3.89-4q3-3.19,5.71-6.52l12.36-53.93c-2.19,2.5-4.48,4.94-6.93,7.31-1.52,1.47-3.08,2.87-4.66,4.25L686,906.56C686.74,905.88,687.48,905.2,688.21,904.5Z"/><path class="cls-26" d="M678,913.32q4.14-3.2,8-6.76l12.59-54.91a131.37,131.37,0,0,1-10.89,8.47L675,915.55C676,914.82,677,914.08,678,913.32Z"/><path class="cls-27" d="M664.78,922.35q5.25-3.2,10.21-6.8l12.7-55.43q-5.1,3.54-10.47,6.67l-12.78,55.76Z"/><path class="cls-28" d="M664.44,922.55l12.78-55.76q-5,2.93-10.22,5.54l-12.82,56Q659.42,925.57,664.44,922.55Z"/><path class="cls-29" d="M652.09,929.37l2.09-1.07,12.82-56q-4.95,2.5-10,4.79L644.1,933.23C646.79,932,649.46,930.7,652.09,929.37Z"/><path class="cls-30" d="M639.69,935.23c1.48-.66,2.95-1.32,4.41-2L657,877.12c-3.28,1.48-6.59,2.9-9.93,4.29l-12.88,56.2C636,936.83,637.85,936,639.69,935.23Z"/><path class="cls-31" d="M627.47,940.37c2.24-.91,4.46-1.83,6.68-2.76L647,881.41q-4.9,2-9.86,4l-12.89,56.25Z"/><path class="cls-32" d="M615.34,945.14q4.49-1.74,8.94-3.5l12.89-56.25q-4.89,1.92-9.82,3.81l-12.89,56.28Z"/><path class="cls-33" d="M614.46,945.48l12.89-56.28L617.54,893l-12.89,56.28Z"/><path class="cls-34" d="M603.24,949.79l1.41-.54L617.54,893c-3.28,1.28-6.56,2.56-9.83,3.88l-12.89,56.24C597.62,952,600.43,950.88,603.24,949.79Z"/><path class="cls-35" d="M591.1,954.58l3.72-1.49,12.89-56.24q-5,2-9.89,4.1L585,957.13C587,956.27,589.05,955.42,591.1,954.58Z"/><path class="cls-36" d="M578.87,959.77c2-.9,4-1.78,6.08-2.64L597.82,901q-5,2.16-10,4.48L575,961.52C576.28,960.93,577.58,960.34,578.87,959.77Z"/><path class="cls-37" d="M566.46,965.66q4.23-2.14,8.54-4.14l12.85-56.09q-5.13,2.43-10.11,5.08l-12.82,55.94Z"/><path class="cls-38" d="M554.67,972.17c3.35-2,6.78-3.91,10.25-5.72l12.82-55.94c-3.5,1.88-6.94,3.85-10.31,6Z"/><path class="cls-39" d="M551.17,974.32c.86-.55,1.72-1.07,2.59-1.6l.91-.55,12.76-55.71-1.23.75c-3.21,2-6.33,4.19-9.36,6.42l-12.69,55.42C546.44,977.42,548.77,975.84,551.17,974.32Z"/><path class="cls-40" d="M540.6,981.65q1.75-1.32,3.55-2.6l12.69-55.42q-5.69,4.2-11,8.84l-12.6,55Q536.84,984.47,540.6,981.65Z"/><path class="cls-41" d="M526.75,993.29q3.18-3,6.52-5.81l12.6-55q-6,5.28-11.48,11.08L521.91,998C523.49,996.41,525.11,994.83,526.75,993.29Z"/><path class="cls-42" d="M511.88,1009.05q4.79-5.71,10-11l12.48-54.46a187.71,187.71,0,0,0-12.23,14.32l-12.28,53.62C510.54,1010.67,511.2,1009.86,511.88,1009.05Z"/><path class="cls-43" d="M496.74,1029.76a203.79,203.79,0,0,1,13.14-18.27l12.28-53.62a209,209,0,0,0-13.47,19.77Z"/><path class="cls-44" d="M495.14,1032.31c.53-.85,1.06-1.71,1.6-2.55l11.95-52.12a252.17,252.17,0,0,0-16.4,32.5l-11,47.92A243.15,243.15,0,0,1,495.14,1032.31Z"/><path class="cls-45" d="M481.31,1058.06l11-47.92c-9.74,23.2-16.59,48.13-21.27,73.26.46-1.29.92-2.58,1.4-3.86Q476.46,1068.56,481.31,1058.06Z"/><path class="cls-46" d="M341.79,1427.72l.61-.39a79.41,79.41,0,0,1,11-54.58q-3.94,2.45-7.91,4.85l-12.77,55.73C335.75,1431.47,338.78,1429.61,341.79,1427.72Z"/><path class="cls-47" d="M328.87,1435.66l3.84-2.33,12.77-55.73q-5.19,3.15-10.38,6.26l-12.78,55.74Z"/><path class="cls-48" d="M316,1443.41l6.32-3.81,12.78-55.74q-5.21,3.14-10.39,6.28l-12.77,55.73Z"/><path class="cls-49" d="M303.09,1451.31q4.41-2.74,8.85-5.44l12.77-55.73q-5.25,3.19-10.43,6.47l-12.75,55.67Z"/><path class="cls-50" d="M291,1459c3.45-2.29,7-4.54,10.49-6.75l12.75-55.67q-5.31,3.38-10.51,6.86Z"/><path class="cls-51" d="M290.06,1459.67l1-.64,12.73-55.56q-5.43,3.65-10.67,7.5l-12.69,55.38Q285.16,1462.93,290.06,1459.67Z"/><path class="cls-52" d="M276.8,1469c1.19-.89,2.4-1.78,3.61-2.66L293.1,1411q-5.57,4.1-10.89,8.49l-12.63,55.13Q273.12,1471.74,276.8,1469Z"/><path class="cls-53" d="M263.11,1480c2.12-1.86,4.27-3.68,6.47-5.45l12.63-55.13c-3.88,3.22-7.65,6.58-11.26,10.1l-12.54,54.72Q260.72,1482.12,263.11,1480Z"/><path class="cls-54" d="M248.63,1494.22c3.12-3.47,6.4-6.76,9.78-9.94L271,1429.56a157,157,0,0,0-11.41,12.32l-.5.63-12.36,54C247.33,1495.72,248,1495,248.63,1494.22Z"/><path class="cls-55" d="M233.77,1513.75A149.54,149.54,0,0,1,244.51,1499c.71-.85,1.44-1.67,2.17-2.51l12.36-54a149.88,149.88,0,0,0-13.35,19.22Z"/><path class="cls-56" d="M233.77,1513.75l11.92-52c-13.12,22.42-20.31,47.66-23.65,74.11a158.34,158.34,0,0,1,10.15-19.56C232.7,1515.43,233.23,1514.59,233.77,1513.75Z"/><path class="cls-57" d="M903.22,1476.65a81.06,81.06,0,0,1,27.47-53,47,47,0,0,1-.46-87.94A105.58,105.58,0,0,1,936.46,1207a81.45,81.45,0,0,1-7.16-141.5,66,66,0,0,1,7.85-83.4A46.91,46.91,0,0,1,900,944.25L879.33,1027a36.18,36.18,0,0,1-16.6,66.51l-48.46,194.26,69.7,67.84c-24.87,27.47-62.06,37-92.7,24.35l-19.42,77.83,99.61,91.11a81.32,81.32,0,0,1,36.74-32.2c0-.65.09-1.31.15-2A81.35,81.35,0,0,1,903.22,1476.65Z"/><path class="cls-57" d="M914.48,901.3c-1-1.1-2-2.23-3-3.37l-2.24,9A46.84,46.84,0,0,1,914.48,901.3Z"/><path class="cls-57" d="M765.76,1695.34a52.37,52.37,0,0,1,19.22,5.91,168.66,168.66,0,0,1,24.58-43.7l-41.53-38A16.88,16.88,0,1,1,744.48,1598l-6.2-5.67L707.5,1715.71a30.57,30.57,0,0,1,4.61-.21,28.94,28.94,0,0,1,5.93.84A52.59,52.59,0,0,1,765.76,1695.34Z"/><path class="cls-57" d="M823.24,1642A170,170,0,0,1,836,1630.44l-87.29-79.84L744,1569.5Z"/><path class="cls-57" d="M859.7,1589.42c0-2.21.17-4.44.41-6.68a82.43,82.43,0,0,1,2.62-13.76l-96.58-88.35-4.72,18.9Z"/><path class="cls-57" d="M852,1092.7l-46.53,186.5,8.8,8.57,48.46-194.26c-.6,0-1.21.07-1.82.09A36,36,0,0,1,852,1092.7Z"/><path class="cls-57" d="M729.37,1584.2l-31.72,127.13c2.19,1.59,4.3,3.27,6.32,5.06a27.51,27.51,0,0,1,3.53-.68l30.78-123.36Z"/><path class="cls-57" d="M879.33,1027,900,944.25a47.08,47.08,0,0,1,9.32-37.33l2.24-9a123.88,123.88,0,0,1-8.23-10.86l-33.82,135.55A35.63,35.63,0,0,1,879.33,1027Z"/><path class="cls-57" d="M783.91,1376.45l-2.38-1.31-12.12,48.58.38.26a4,4,0,0,1,.87.59c3.6,3.3.81,13-6.64,26.06l7.83,7.16L791.27,1380A72.77,72.77,0,0,1,783.91,1376.45Z"/><polygon class="cls-57" points="761.43 1499.53 766.15 1480.63 757.24 1472.49 752.53 1491.39 761.43 1499.53"/><polygon class="cls-57" points="743.98 1569.5 748.69 1550.6 739.78 1542.46 735.07 1561.36 743.98 1569.5"/><path class="cls-58" d="M852,1092.7a35.54,35.54,0,0,1-10-3.94l-45.38,181.87,8.81,8.57Z"/><path class="cls-58" d="M729.37,1584.2l-8.91-8.14-32.28,129.39a78.42,78.42,0,0,1,9.47,5.88Z"/><path class="cls-58" d="M859.14,1021.36a35.72,35.72,0,0,1,10.34,1.26L903.3,887.07a125.25,125.25,0,0,1-7.69-13l-36.76,147.34Z"/><polygon class="cls-58" points="735.07 1561.36 739.78 1542.46 730.88 1534.31 726.16 1553.21 735.07 1561.36"/><path class="cls-58" d="M743.62,1483.24l8.91,8.15,4.71-18.9-4.62-4.23q-3.68,5.13-7.89,10.54Z"/><polygon class="cls-58" points="769.41 1423.72 781.53 1375.13 773.92 1370.94 771.91 1369.83 760.06 1417.35 769.41 1423.72"/><path class="cls-59" d="M842,1088.76a36.2,36.2,0,0,1-9.07-7.5l-45.11,180.8,8.8,8.57Z"/><path class="cls-59" d="M858.85,1021.37,895.61,874a124.61,124.61,0,0,1-6.88-16.26l-41.39,165.91A35.67,35.67,0,0,1,858.85,1021.37Z"/><path class="cls-59" d="M720.46,1576.06l-8.9-8.15-33.22,133.14a79,79,0,0,1,9.84,4.4Z"/><path class="cls-59" d="M742.22,1482l1.4,1.28,1.11-4.44C743.91,1479.85,743.07,1480.91,742.22,1482Z"/><polygon class="cls-59" points="760.06 1417.35 771.91 1369.83 762.3 1364.53 750.71 1410.98 760.06 1417.35"/><polygon class="cls-59" points="726.16 1553.21 730.88 1534.31 721.97 1526.16 717.26 1545.06 726.16 1553.21"/><path class="cls-60" d="M825.48,1067.45l-46.42,186,8.8,8.56L833,1081.26A36.12,36.12,0,0,1,825.48,1067.45Z"/><path class="cls-60" d="M702.65,1559.76l-34.51,138.32a78.27,78.27,0,0,1,10.2,3l33.22-133.14Z"/><path class="cls-60" d="M834.24,1032.32a35.93,35.93,0,0,1,13.1-8.64l41.39-165.91a123.56,123.56,0,0,1-5.37-22.32Z"/><polygon class="cls-60" points="717.26 1545.06 721.97 1526.16 713.07 1518.02 708.35 1536.92 717.26 1545.06"/><polygon class="cls-60" points="741.36 1404.62 750.71 1410.98 762.3 1364.53 752.68 1359.22 741.36 1404.62"/><path class="cls-61" d="M942.16,558.05l-.52,0-.3,1.22C941.61,558.83,941.89,558.44,942.16,558.05Z"/><path class="cls-61" d="M693.74,1551.62l-17.92,71.83a9.88,9.88,0,0,1,.24,1.9,9.53,9.53,0,0,1-2.34,6.5l-16.11,64.59,1.4.13a78,78,0,0,1,9.13,1.51l34.51-138.32Z"/><path class="cls-61" d="M770.26,1244.93l8.8,8.57,46.42-186a36.3,36.3,0,0,1,8.76-35.13l49.12-196.87a123.74,123.74,0,0,1-1.27-19.24q-2.07-1.59-4-3.31Z"/><path class="cls-61" d="M741.36,1404.62l11.32-45.4-9.61-5.3-7.19,28.79a56.62,56.62,0,0,1-2.24,9l-1.63,6.55Z"/><path class="cls-61" d="M699.94,1526.76l-.5,2,8.91,8.15,4.72-18.9-1.9-1.74C707.35,1520,703.59,1523.52,699.94,1526.76Z"/><path class="cls-62" d="M912.7,672.28a171.2,171.2,0,0,1,.06-34.84,169.37,169.37,0,0,1,28.58-78.21l.3-1.22q-2.86-.21-5.74-.32c-1.7-.07-3.39-.1-5.09-.11L901.3,675.86A79.41,79.41,0,0,1,912.7,672.28Z"/><path class="cls-62" d="M733.64,1391.7c-.64,2-1.4,4-2.26,6.12l.63.43Z"/><path class="cls-62" d="M733.45,1348.62l-3.87,15.52,3.6,4c2.9,3.07,3.7,8.11,2.7,14.59l7.19-28.79Z"/><path class="cls-62" d="M698.58,1528l.86.79.5-2Z"/><path class="cls-62" d="M666.76,1635.17a9.5,9.5,0,0,1-4.54-1l-15.49,62.08a81,81,0,0,1,10.88.22l16.11-64.59A9.47,9.47,0,0,1,666.76,1635.17Z"/><path class="cls-62" d="M761.46,1236.36l8.8,8.57,107.79-432a81.14,81.14,0,0,1-8.73-8.86Z"/><path class="cls-62" d="M675.82,1623.45l17.92-71.83-8.9-8.15L666.74,1616A9.53,9.53,0,0,1,675.82,1623.45Z"/><polygon class="cls-63" points="723.84 1343.31 721 1354.69 729.58 1364.14 733.45 1348.62 723.84 1343.31"/><path class="cls-63" d="M888.8,682.13a80.24,80.24,0,0,1,12.5-6.27l29.51-118.28c-1.28,0-2.56,0-3.83,0q-3.59,0-7.17.24Z"/><path class="cls-63" d="M657,1625.82a9.58,9.58,0,0,1,9.3-9.82l.45,0,18.1-72.55-2.65-2.42a103.84,103.84,0,0,1-9.15,5.86l-37.59,150.65a79.34,79.34,0,0,1,11.28-1.34l15.49-62.08A9.6,9.6,0,0,1,657,1625.82Z"/><path class="cls-63" d="M752.66,1227.8l8.8,8.56L869.32,804a81.77,81.77,0,0,1-8.08-11.45Z"/><path class="cls-64" d="M888.8,682.13l31-124.3L918,558q-4.58.3-9.14.84l-.19,0L875.26,692.56A80.56,80.56,0,0,1,888.8,682.13Z"/><polygon class="cls-64" points="721 1354.69 723.84 1343.31 714.22 1338.01 712.42 1345.23 715.13 1348.22 721 1354.69"/><path class="cls-64" d="M661,1551.33l-37.28,149.42a80.23,80.23,0,0,1,11.73-3.19L673,1546.91C668.12,1549.66,664,1551.21,661,1551.33Z"/><path class="cls-64" d="M743.85,1219.23l8.81,8.57L861.24,792.59a81.44,81.44,0,0,1-7-15.59Z"/><polygon class="cls-65" points="704.61 1332.7 703.84 1335.78 712.42 1345.23 714.22 1338.01 704.61 1332.7"/><path class="cls-65" d="M875.26,692.56l33.36-133.75c-3,.36-6,.79-9.06,1.3l-2.3.4-38.5,154.32A81,81,0,0,1,875.26,692.56Z"/><path class="cls-65" d="M824.7,860.86a9.68,9.68,0,0,1-4.4,8.12l-85.25,341.68,8.8,8.57L854.19,777a81,81,0,0,1-4.06-27.6L823.5,856.16A9.77,9.77,0,0,1,824.7,860.86Z"/><path class="cls-65" d="M657,1550.15a4.89,4.89,0,0,1-.67-.82l-4.43-5.41-40.53,162.43a81.24,81.24,0,0,1,12.34-5.6L661,1551.33A5.41,5.41,0,0,1,657,1550.15Z"/><path class="cls-66" d="M820.3,869a9.58,9.58,0,0,1-10.87-.27L726.25,1202.1l8.8,8.56Z"/><path class="cls-66" d="M813.79,851.25a9,9,0,0,1,1.28-.1,9.65,9.65,0,0,1,8.43,5L850.13,749.4c.06-2.12.19-4.26.41-6.4a81.2,81.2,0,0,1,8.22-28.17l38.5-154.32c-2.36.43-4.72.9-7.06,1.42-1.5.34-3,.69-4.5,1.06Z"/><path class="cls-66" d="M643.52,1533.7,623,1615.79a87.45,87.45,0,0,1-7.23,29l-17.67,70.82a81.6,81.6,0,0,1,13.24-9.25l40.53-162.43Z"/><polygon class="cls-66" points="697.49 1328.78 703.84 1335.78 704.61 1332.7 697.49 1328.78"/><path class="cls-67" d="M615.81,1644.78a94.11,94.11,0,0,1-16.41,25.27h0l-.69-.59-13.62,54.6c.28,1.61.5,3.25.62,4.9a81.19,81.19,0,0,1,12.43-13.36Z"/><path class="cls-67" d="M717.45,1193.53l8.8,8.57,83.18-333.39a9.69,9.69,0,0,1,4.36-17.46L885.7,563q-2.51.63-5,1.32-3.4.93-6.77,2Z"/><path class="cls-67" d="M635.37,1523.78l-.24-.3-15.64,62.69a78.21,78.21,0,0,1,3.55,29.62l20.48-82.09Z"/><path class="cls-68" d="M708.65,1185l8.8,8.57L873.94,566.31q-1.43.45-2.85.93-4.62,1.53-9.15,3.31Z"/><path class="cls-68" d="M635.13,1523.48l-8.31-10.12-.12.07-14.3,57.31a72.9,72.9,0,0,1,7.09,15.43Z"/><path class="cls-68" d="M589.7,1661.72,578.41,1707a47.06,47.06,0,0,1,6.68,17.08l13.62-54.6Z"/><path class="cls-69" d="M699.85,1176.4l8.8,8.56L861.94,570.55l-.61.24q-5,2-9.91,4.23l-1.74.82Z"/><path class="cls-69" d="M580.69,1654,570,1697.05a47,47,0,0,1,8.46,9.93l11.29-45.26Z"/><path class="cls-69" d="M614.45,1518.68l-10,40.13,6.17,9.14c.62.92,1.22,1.85,1.79,2.79l14.3-57.31A74,74,0,0,1,614.45,1518.68Z"/><path class="cls-70" d="M849.68,575.84q-4.23,2-8.36,4.19c-1.41.75-2.81,1.51-4.2,2.3l-146.07,585.5,8.8,8.57Z"/><path class="cls-70" d="M571.68,1646.24l-11.07,44.39a46.77,46.77,0,0,1,9.34,6.42L580.69,1654Z"/><path class="cls-70" d="M603.15,1520.14l-6.7,26.83,8,11.84,10-40.13A27.55,27.55,0,0,1,603.15,1520.14Z"/><path class="cls-2" d="M837.12,582.33q-3.07,1.74-6.09,3.59c-2.31,1.41-4.59,2.88-6.84,4.39l-142,569,8.81,8.57Z"/><path class="cls-2" d="M597.58,1518l-4.06-3.07-5.06,20.25,8,11.83,6.7-26.83A11.08,11.08,0,0,1,597.58,1518Z"/><path class="cls-2" d="M562.68,1638.5l-12.06,48.31a46.59,46.59,0,0,1,10,3.82l11.07-44.39Z"/><path class="cls-3" d="M824.19,590.31q-1.86,1.26-3.7,2.55-5,3.52-9.7,7.35L673.44,1150.7l8.8,8.56Z"/><polygon class="cls-3" points="584.32 1507.92 580.48 1523.31 588.47 1535.14 593.52 1514.89 584.32 1507.92"/><path class="cls-3" d="M557.94,1634.43l-4.27-3.67L540,1685.37c1.3,0,2.61.11,3.92.24a46.58,46.58,0,0,1,6.66,1.2l12.06-48.31Z"/><polygon class="cls-4" points="576.17 1501.77 575.11 1500.96 572.49 1511.47 580.48 1523.31 584.32 1507.92 576.17 1501.77"/><path class="cls-4" d="M664.64,1142.13l8.8,8.57L810.79,600.21l-1.14.92c-3.88,3.19-7.64,6.54-11.24,10-.57.56-1.15,1.11-1.71,1.67Z"/><path class="cls-4" d="M544.66,1623l-15.84,63.48a46.37,46.37,0,0,1,11.22-1.13l13.63-54.61Z"/><path class="cls-5" d="M663.47,1141l1.17,1.14L796.7,612.83c-3.54,3.51-6.91,7.18-10.13,11q-2.64,3.11-5.13,6.33L655.63,1134.4A71.26,71.26,0,0,1,663.47,1141Z"/><path class="cls-5" d="M535.65,1615.28l-18.91,75.81a46.39,46.39,0,0,1,12.08-4.59L544.66,1623Z"/><polygon class="cls-5" points="565.91 1494 564.5 1499.64 572.49 1511.47 575.11 1500.96 565.91 1494"/><polygon class="cls-6" points="556.71 1487.04 556.52 1487.81 564.5 1499.64 565.91 1494 556.71 1487.04"/><path class="cls-6" d="M708.49,878.7l-62.35,249.91a70.41,70.41,0,0,1,9.49,5.79L781.44,630.13q-4.1,5.32-7.78,11A162.17,162.17,0,0,0,763.06,660l-22.94,91.94c-2.29,16.93-4.31,33.91-7,50.43-4.21,25.41-10.17,49.7-21.58,71C710.53,875.17,709.53,876.94,708.49,878.7Z"/><path class="cls-6" d="M526.65,1607.54l-23.72,95a47.16,47.16,0,0,1,13.81-11.49l18.91-75.81Z"/><path class="cls-7" d="M763.06,660q-1.9,4-3.58,8.08l-.51,1.29c-10.32,25.78-15,54.11-18.85,82.57Z"/><path class="cls-7" d="M526.65,1607.54l-9-7.74L493,1698.66a47.79,47.79,0,0,1,7.52,7.18c.77-1.12,1.59-2.21,2.44-3.26Z"/><path class="cls-7" d="M646.14,1128.61,708.49,878.7A126,126,0,0,1,697.81,894q-2.71,3.33-5.71,6.52l-55.89,224A70.52,70.52,0,0,1,646.14,1128.61Z"/><polygon class="cls-7" points="555.26 1485.94 556.52 1487.81 556.71 1487.04 555.26 1485.94"/><path class="cls-8" d="M625.9,1122a71.7,71.7,0,0,1,10.31,2.5l55.89-224c-1.26,1.34-2.55,2.66-3.89,4-.73.7-1.47,1.38-2.22,2.06q-3.88,3.57-8,6.76Z"/><path class="cls-8" d="M508.63,1592.06l-25.19,101a46.42,46.42,0,0,1,9.53,5.63l24.67-98.86Z"/><path class="cls-9" d="M499.62,1584.32l-26.34,105.59a45.92,45.92,0,0,1,10.16,3.12l25.19-101Z"/><path class="cls-9" d="M615.2,1121.07a73.62,73.62,0,0,1,10.7,1L678,913.32c-1,.76-2,1.5-3,2.23q-5,3.62-10.21,6.8Z"/><path class="cls-10" d="M490.61,1576.58l-28.08,112.58a46.88,46.88,0,0,1,7.09.2c1.24.13,2.46.32,3.66.55l26.34-105.59Z"/><path class="cls-10" d="M615.2,1121.07l49.58-198.72-.34.2q-5,3-10.26,5.75l-2.09,1.07-48,192.35A75.24,75.24,0,0,1,615.2,1121.07Z"/><path class="cls-11" d="M481.61,1568.84l-30.52,122.31a45.86,45.86,0,0,1,11.44-2l28.08-112.58Z"/><path class="cls-11" d="M600.89,1122.2q1.61-.27,3.21-.48l48-192.35c-2.63,1.33-5.3,2.62-8,3.86-1.46.68-2.93,1.34-4.41,2l-47.14,188.94A78.79,78.79,0,0,1,600.89,1122.2Z"/><path class="cls-12" d="M481.61,1568.84l-9-7.74-33.94,136a47,47,0,0,1,12.43-6Z"/><path class="cls-12" d="M580.45,1128.8a78.83,78.83,0,0,1,12.1-4.63l47.14-188.94c-1.84.81-3.68,1.6-5.54,2.38-2.22.93-4.44,1.85-6.68,2.76Z"/><path class="cls-13" d="M463.59,1553.36l-40.06,160.58a47.06,47.06,0,0,1,15.13-16.83l33.94-136Z"/><path class="cls-13" d="M567.6,1136.5a81.39,81.39,0,0,1,12.85-7.7l47-188.43-3.19,1.27q-4.46,1.77-8.94,3.5Z"/><path class="cls-13" d="M419.3,1747A47.55,47.55,0,0,1,418,1736l-2.27,9.11C416.94,1745.72,418.13,1746.32,419.3,1747Z"/><path class="cls-14" d="M554.72,1148.11a84.4,84.4,0,0,1,12.88-11.61l47.74-191.36-.88.34-9.81,3.77-1.41.54-49.85,199.79Z"/><path class="cls-14" d="M454.58,1545.62,405.79,1741.2a81.1,81.1,0,0,1,9.95,4L418,1736a46,46,0,0,1,.24-4.81,47,47,0,0,1,5.28-17.29l40.06-160.58Z"/><path class="cls-15" d="M553.39,1149.58l49.85-199.79c-2.81,1.09-5.62,2.18-8.42,3.3l-3.72,1.49-50.65,203,3,2.92Z"/><path class="cls-15" d="M445.57,1537.88,395.5,1738.59a81.13,81.13,0,0,1,10.29,2.61l48.79-195.58Z"/><path class="cls-16" d="M585,957.13c-2,.86-4.06,1.74-6.08,2.64l-47.28,189.51q4.49,4.14,8.86,8.33l50.65-203C589.05,955.42,587,956.27,585,957.13Z"/><path class="cls-16" d="M445.57,1537.88l-9-7.74-51.69,207.18c1.4.08,2.82.18,4.23.32,2.16.23,4.29.56,6.39.95Z"/><path class="cls-17" d="M578.87,959.77c-1.29.57-2.59,1.16-3.87,1.75q-4.32,2-8.54,4.14l-43.8,175.57q4.53,4,8.93,8Z"/><path class="cls-17" d="M436.57,1530.14l-9-7.74L373.9,1737.47a81.9,81.9,0,0,1,11-.15Z"/><path class="cls-18" d="M566.46,965.66l-1.54.79c-3.47,1.81-6.9,3.7-10.25,5.72l-.91.55-40.1,160.73q4.56,3.85,9,7.78Z"/><path class="cls-18" d="M418.55,1514.66l-56,224.56a79.37,79.37,0,0,1,11.37-1.75l53.66-215.07Z"/><path class="cls-19" d="M551.17,974.32c-2.4,1.52-4.73,3.1-7,4.73q-1.8,1.28-3.55,2.6l-36,144.29c3,2.48,6.08,5,9.06,7.51l40.1-160.73C552.89,973.25,552,973.77,551.17,974.32Z"/><path class="cls-19" d="M409.54,1506.92,368,1673.48a15.52,15.52,0,0,1-6.71,26.89l-10.6,42.5a80.51,80.51,0,0,1,11.85-3.65l56-224.56Z"/><path class="cls-20" d="M533.27,987.48q-3.35,2.82-6.52,5.81l-31.28,125.37q4.62,3.61,9.13,7.28l36-144.29Q536.84,984.47,533.27,987.48Z"/><path class="cls-20" d="M361.28,1700.37a15.35,15.35,0,0,1-10.58-1.44l-12.51,50.14a81.58,81.58,0,0,1,12.49-6.2Z"/><path class="cls-20" d="M358,1669.72a15.29,15.29,0,0,1,10,3.76l41.55-166.56-9-7.74Z"/><path class="cls-21" d="M521.91,998q-5.25,5.31-10,11l-25.59,102.57c3.09,2.32,6.15,4.68,9.18,7l31.28-125.37C525.11,994.83,523.49,996.41,521.91,998Z"/><path class="cls-21" d="M342.66,1687.31l-18,72a83.06,83.06,0,0,1,13.49-10.24l12.51-50.14A15.52,15.52,0,0,1,342.66,1687.31Z"/><path class="cls-21" d="M345.44,1676.15a15.35,15.35,0,0,1,12.51-6.43h0l42.55-170.54-9-7.74Z"/><path class="cls-22" d="M511.88,1009.05c-.68.81-1.34,1.62-2,2.44a203.79,203.79,0,0,0-13.14,18.27c-.54.84-1.07,1.7-1.6,2.55l-18.09,72.51q4.67,3.38,9.24,6.8Z"/><path class="cls-22" d="M342.5,1685.22a15.59,15.59,0,0,1,2.94-9.07l46.09-184.71-9-7.74-73.95,296.42a82.28,82.28,0,0,1,16.13-20.81l18-72A16.06,16.06,0,0,1,342.5,1685.22Z"/><path class="cls-23" d="M481.31,1058.06q-4.86,10.49-8.89,21.48l-4.67,18.69q4.69,3.26,9.3,6.59l18.09-72.51A243.15,243.15,0,0,0,481.31,1058.06Z"/><path class="cls-23" d="M373.51,1476l-78.6,315a64.34,64.34,0,0,1,8.17,1.51,82.07,82.07,0,0,1,5.49-12.4l73.95-296.42Z"/><path class="cls-24" d="M472.42,1079.54c-.48,1.28-.94,2.57-1.4,3.86q-2.44,6.88-4.58,13.92l1.31.91Z"/><path class="cls-24" d="M373.51,1476l-7.42-6.37c-.54-.47-1-.95-1.57-1.43L284.07,1790.6a65.43,65.43,0,0,1,9.87.29l1,.12Z"/><path class="cls-25" d="M364.52,1468.16a70.14,70.14,0,0,1-8.6-9.37l-83.17,333.36a64.28,64.28,0,0,1,11.32-1.55Z"/><path class="cls-26" d="M355.92,1458.79a70.33,70.33,0,0,1-7.74-12.81L260.82,1796.1a64.19,64.19,0,0,1,11.93-3.95Z"/><path class="cls-27" d="M348.18,1446a72.59,72.59,0,0,1-5.78-18.65l-.61.39L248,1803.61a66,66,0,0,1,12.81-7.51Z"/><path class="cls-28" d="M341.79,1427.72c-3,1.89-6,3.75-9.08,5.61l-3.84,2.33-95.65,383.4A65.81,65.81,0,0,1,248,1803.61Z"/><path class="cls-29" d="M328.87,1435.66l-6.55,3.94-6.32,3.81L225,1808.3q1.64,9.63,3.35,19.23a64.62,64.62,0,0,1,4.91-8.47Z"/><path class="cls-30" d="M316,1443.41l-4.06,2.46q-4.44,2.7-8.85,5.44l-82.47,330.56q2.1,13.23,4.34,26.43Z"/><path class="cls-31" d="M303.09,1451.31l-1.56,1c-3.53,2.21-7,4.46-10.49,6.75l-1,.64-73.61,295q2,13.59,4.17,27.16Z"/><path class="cls-32" d="M290.06,1459.67q-4.89,3.27-9.65,6.68c-1.21.88-2.42,1.77-3.61,2.66l-64.32,257.77q1.91,14,4,27.93Z"/><path class="cls-33" d="M276.8,1469q-3.68,2.73-7.22,5.58c-2.2,1.77-4.35,3.59-6.47,5.45l-54.34,217.77q.9,7.74,1.89,15.36.9,6.81,1.82,13.61Z"/><path class="cls-34" d="M263.11,1480q-2.39,2.09-4.7,4.24c-3.38,3.18-6.66,6.47-9.78,9.94l-42.84,171.71c.73,10.7,1.77,21.36,3,31.88Z"/><path class="cls-35" d="M248.63,1494.22c-.66.73-1.3,1.5-1.95,2.25s-1.46,1.66-2.17,2.51a149.54,149.54,0,0,0-10.74,14.77c-.54.84-1.07,1.68-1.58,2.53l-27.51,110.25c-.24,13.07.21,26.26,1.11,39.4Z"/><path class="cls-36" d="M232.19,1516.28A158.34,158.34,0,0,0,222,1535.84c-12.11,27.77-16.78,58.86-17.36,90.69Z"/><path class="cls-71" d="M154.85,1905.63A35.88,35.88,0,0,0,126.09,1920h44.45q2.1-4.17,4.44-8.17A35.64,35.64,0,0,0,154.85,1905.63Z"/><path class="cls-71" d="M995,499.39a73.1,73.1,0,0,1,9.22-94,50.12,50.12,0,1,0-13.53,99.05C992.06,502.71,993.49,501,995,499.39Z"/><path class="cls-71" d="M294.77,1842a26.34,26.34,0,0,1,42.47-14.16,81.21,81.21,0,0,1,88.69-28.88c0-.91-.07-1.82,0-2.74a41.61,41.61,0,0,1,69.33-29.78A72.22,72.22,0,0,1,606.41,1746a49.92,49.92,0,0,1,76.92-9.73A29.09,29.09,0,0,1,704,1716.39c-2-1.79-4.13-3.47-6.32-5.06A81,81,0,0,0,659,1696.57l-1.4-.13a81,81,0,0,0-10.88-.22,79.34,79.34,0,0,0-11.28,1.34,80.23,80.23,0,0,0-11.73,3.19,81.28,81.28,0,0,0-38,28.21c-.12-1.65-.34-3.29-.62-4.9a46.88,46.88,0,0,0-24.48-33.43,46.78,46.78,0,0,0-16.65-5c-1.31-.13-2.62-.21-3.92-.24a46.19,46.19,0,0,0-23.3,5.72,47.16,47.16,0,0,0-13.81,11.49c-.85,1.05-1.67,2.14-2.44,3.26a47.79,47.79,0,0,0-7.52-7.18,46.42,46.42,0,0,0-9.53-5.63,45.92,45.92,0,0,0-10.16-3.12c-1.2-.23-2.42-.42-3.66-.55a46.88,46.88,0,0,0-7.09-.2,45.86,45.86,0,0,0-11.44,2,47,47,0,0,0-32.84,40.08A46,46,0,0,0,418,1736,47.55,47.55,0,0,0,419.3,1747c-1.17-.63-2.36-1.23-3.56-1.8a82.38,82.38,0,0,0-20.24-6.56c-2.1-.39-4.23-.72-6.39-.95-1.41-.14-2.83-.24-4.23-.32a81.9,81.9,0,0,0-11,.15,79.37,79.37,0,0,0-11.37,1.75,80.51,80.51,0,0,0-11.85,3.65,81.58,81.58,0,0,0-12.49,6.2,82.8,82.8,0,0,0-29.62,31,82.07,82.07,0,0,0-5.49,12.4,64.34,64.34,0,0,0-8.17-1.51l-1-.12a65.43,65.43,0,0,0-9.87-.29,65.41,65.41,0,0,0-23.25,5.5,65.65,65.65,0,0,0-27.6,23,64.62,64.62,0,0,0-4.91,8.47,65.75,65.75,0,0,0-6.21,21.91,66.74,66.74,0,0,0,0,13.92A140.06,140.06,0,0,1,294.77,1842Z"/><path class="cls-71" d="M969.71,527.25q-6,5.25-11.47,11A168.29,168.29,0,0,0,946,552.78q-2,2.6-3.81,5.27c-.27.39-.55.78-.82,1.18a169.37,169.37,0,0,0-28.58,78.21,171.2,171.2,0,0,0-.06,34.84,79.41,79.41,0,0,0-11.4,3.58,81.26,81.26,0,0,0-42.54,39A81.2,81.2,0,0,0,850.54,743c-.22,2.14-.35,4.28-.41,6.4a81.38,81.38,0,0,0,27.92,63.5q2,1.73,4,3.31A124,124,0,0,0,895.61,874a125.25,125.25,0,0,0,7.69,13,123.88,123.88,0,0,0,8.23,10.86c1,1.14,1.94,2.27,3,3.37a47,47,0,0,0,22.67,80.78,66,66,0,0,0-7.85,83.4,81.45,81.45,0,0,0,7.16,141.5,105.58,105.58,0,0,0-6.23,128.78,47,47,0,0,0,.46,87.94,81.53,81.53,0,0,0-22.34,91,119,119,0,0,1,82.2-103.36,82.42,82.42,0,0,1,5.21-62.33,73,73,0,0,1-27.14-112.8,50.49,50.49,0,0,1,31.65-84.51,73.06,73.06,0,0,1-4.19-25.17,40.51,40.51,0,0,1-5.53-26,41,41,0,0,1,2-8.43A73,73,0,0,1,957,974.32c-.09-.19-.17-.39-.26-.59A73,73,0,0,1,965.12,878a41.9,41.9,0,0,1,18.4-75.8,144.32,144.32,0,0,1-.24-14.88,141.91,141.91,0,0,1,28.92-81,142.61,142.61,0,0,1-31.82-187.6Q974.88,522.73,969.71,527.25ZM925.36,730.59a9.58,9.58,0,1,1,9.29-9.82A9.55,9.55,0,0,1,925.36,730.59Z"/><path class="cls-71" d="M871.46,1548.9l31.7,29a39.31,39.31,0,0,1,15.07-4.36,119.15,119.15,0,0,1-10.25-53c0-1.29.13-2.58.22-3.87A81.32,81.32,0,0,0,871.46,1548.9Z"/><path class="cls-71" d="M862.73,1569a82.43,82.43,0,0,0-2.62,13.76c-.24,2.24-.36,4.47-.41,6.68l22.2,20.3a39.8,39.8,0,0,1,6-17.73Z"/><path class="cls-71" d="M836,1630.44A170,170,0,0,0,823.24,1642L852,1668.29q-.06-1.74,0-3.51a54,54,0,0,1,3.27-16.71Z"/><path class="cls-71" d="M809.56,1657.55a168.66,168.66,0,0,0-24.58,43.7A52.46,52.46,0,0,0,718,1716.34a28.89,28.89,0,0,1,14.24,8.43,72.09,72.09,0,0,1,57.6-8.88,36.75,36.75,0,0,1,35.62-33.57,35.7,35.7,0,0,1,7.42.57c1-.43,2-.82,3-1.2Z"/><path class="cls-72" d="M859.7,1589.42l-98.27-89.89-8.9-8.14-8.91-8.15-1.4-1.28q-3.19,4-6.65,8.08-4,4.74-8.37,9.55c-5.38,6-10.77,11.54-16,16.69l1.9,1.74,8.9,8.14,8.91,8.15,8.9,8.15,8.91,8.14L836,1630.44l19.27,17.63a54,54,0,0,1,26.83-29.82,40.77,40.77,0,0,1-.32-6.37c0-.73.08-1.44.14-2.16Z"/><path class="cls-72" d="M871.46,1548.9l-99.61-91.11-7.83-7.16a204.8,204.8,0,0,1-11.4,17.63l4.62,4.23,8.91,8.14L862.73,1569l25.16,23a40,40,0,0,1,15.27-14.1Z"/><path class="cls-72" d="M823.24,1642,744,1569.5l-8.91-8.15-8.91-8.14-8.9-8.15-8.91-8.14-8.91-8.15-.86-.79a205.36,205.36,0,0,1-16.39,13.07l2.65,2.42,8.9,8.15,8.91,8.14,8.91,8.15,8.9,8.15,8.91,8.14,8.91,8.15,6.2,5.67a16.82,16.82,0,0,1,24.9,14.48,17,17,0,0,1-1.35,7.06l41.53,38,26.4,24.14a71.49,71.49,0,0,1,17.15-4,55.68,55.68,0,0,1-1.13-9.37Z"/><path class="cls-72" d="M1036.89,387.14A73,73,0,0,0,995,499.39c-1.48,1.64-2.91,3.32-4.31,5-.57.68-1.13,1.38-1.68,2.07q-4.38,5.56-8.21,11.55l-.39.59a142.61,142.61,0,0,0,31.82,187.6,141.91,141.91,0,0,0-28.92,81,144.32,144.32,0,0,0,.24,14.88,41.9,41.9,0,0,0-18.4,75.8,73,73,0,0,0-8.35,95.77,70.27,70.27,0,0,1,29.09-88.11,26.4,26.4,0,0,1,20.42-13.15,146.64,146.64,0,0,1,73.72-134V407.67a32.19,32.19,0,0,1-43.11-20.53ZM1007.78,621.6a13.27,13.27,0,1,1,12.87-13.6A13.23,13.23,0,0,1,1007.78,621.6Z"/><path class="cls-72" d="M939.46,1019.28a72.79,72.79,0,0,0,53.08,72.81,40.56,40.56,0,0,1,11.47-17,106.94,106.94,0,0,1-26.4-74A70.43,70.43,0,0,1,957,974.32,72.74,72.74,0,0,0,939.46,1019.28Z"/><path class="cls-72" d="M397.91,1917.08a56.7,56.7,0,0,1,55-86.09,55.93,55.93,0,0,1,7.85,1.57,70.63,70.63,0,0,1,101-37.19,40.28,40.28,0,0,1,70.75-34,40.27,40.27,0,0,1,73.07,21.48,69.47,69.47,0,0,1,109.52-.85A45.33,45.33,0,0,1,878,1762.6a146.23,146.23,0,0,1,68.46-75,70.27,70.27,0,0,1,41.8-82.14,70.34,70.34,0,0,1,20.38-79.5,40.57,40.57,0,0,1,1.19-75.84,91.08,91.08,0,0,1,7.68-110.94,70.27,70.27,0,0,1-3.63-122.16,56.88,56.88,0,0,1,8.26-71.77,40.28,40.28,0,0,1-26-18.63,73.06,73.06,0,0,0,4.19,25.17,50.49,50.49,0,0,0-31.65,84.51,73,73,0,0,0,27.14,112.8,82.42,82.42,0,0,0-5.21,62.33,119,119,0,0,0-82.2,103.36c-.06.65-.11,1.31-.15,2-.09,1.29-.17,2.58-.22,3.87a119.15,119.15,0,0,0,10.25,53,39.31,39.31,0,0,0-15.07,4.36,40,40,0,0,0-21.26,31.83c-.06.72-.11,1.43-.14,2.16a40.77,40.77,0,0,0,.32,6.37,53.95,53.95,0,0,0-30.1,46.53q-.06,1.77,0,3.51a55.68,55.68,0,0,0,1.13,9.37,71.49,71.49,0,0,0-17.15,4c-1,.38-2,.77-3,1.2a36.85,36.85,0,1,1-43.18,37.19,38.85,38.85,0,0,1,.14-4.19,72.09,72.09,0,0,0-57.6,8.88,28.93,28.93,0,0,0-20.17-9.27,30.57,30.57,0,0,0-4.61.21,27.51,27.51,0,0,0-3.53.68,29.09,29.09,0,0,0-20.64,19.87,49.92,49.92,0,0,0-76.92,9.73,72.22,72.22,0,0,0-111.18,20.43,41.61,41.61,0,0,0-69.33,29.78c0,.92,0,1.83,0,2.74a81.21,81.21,0,0,0-88.69,28.88A26.48,26.48,0,1,1,294,1848.93a27,27,0,0,1,.75-7,140.06,140.06,0,0,0-72.65,21.38A142.53,142.53,0,0,0,175,1911.83q-2.34,4-4.44,8.17H383.1A117.87,117.87,0,0,1,397.91,1917.08Zm583.31-346.32A16.14,16.14,0,1,1,964.69,1555,16.18,16.18,0,0,1,981.22,1570.76Zm-35-109a12.54,12.54,0,1,1-12.15,12.85A12.5,12.5,0,0,1,946.26,1461.73Z"/><path class="cls-73" d="M1007.27,847.55a147.32,147.32,0,0,0-1,24.92c.59-.05,1.19-.09,1.8-.11a26.5,26.5,0,1,1-22.22,13.26,70.27,70.27,0,0,0-29.09,88.11c.09.2.17.4.26.59a70.43,70.43,0,0,0,20.58,26.84,106.94,106.94,0,0,0,26.4,74,40.55,40.55,0,0,0,18.09,70.07,56.88,56.88,0,0,0-8.26,71.77,70.27,70.27,0,0,0,3.63,122.16,91.08,91.08,0,0,0-7.68,110.94,40.57,40.57,0,0,0-1.19,75.84,70.34,70.34,0,0,0-20.38,79.5,70.27,70.27,0,0,0-41.8,82.14,146.23,146.23,0,0,0-68.46,75A45.33,45.33,0,0,0,815.14,1782a69.47,69.47,0,0,0-109.52.85,40.27,40.27,0,0,0-73.07-21.48,40.33,40.33,0,0,0-70.75,34,70.63,70.63,0,0,0-101,37.19,56.32,56.32,0,0,0-70.86,47.62,56.69,56.69,0,0,0,8,36.9,117.46,117.46,0,0,1,31.11.1,115.29,115.29,0,0,1,14.05,2.82h7.79a67.83,67.83,0,0,1,84.75-28.4c0-.76.09-1.52.19-2.28a34.72,34.72,0,0,1,60-19,60.27,60.27,0,0,1,94-7.79,41.64,41.64,0,0,1,64.68-1.74,24.11,24.11,0,0,1,41.6-5.51,60.08,60.08,0,0,1,53.45-.51,60.45,60.45,0,0,1,50.76-28.65,44.84,44.84,0,0,1,28.92-47A33.06,33.06,0,0,1,962.94,1745a99.53,99.53,0,0,1,73.3-128.72,68.78,68.78,0,0,1,9.42-51.34,61,61,0,0,1-13.35-95.93,42.14,42.14,0,0,1,33.2-67.6,60.84,60.84,0,0,1,5.51-43.59c.71-1.31,1.47-2.57,2.25-3.81a60.9,60.9,0,0,1-29.12-103.61,61,61,0,0,1,14.51-79.3,34.95,34.95,0,0,1,21.34-61.43V978.88a118.63,118.63,0,0,1-3.29-47.9,120.22,120.22,0,0,1,3.29-16.06V738.5A146,146,0,0,0,1007.27,847.55ZM571.94,1813.26a11.06,11.06,0,1,1,10.72-11.33A11,11,0,0,1,571.94,1813.26Z"/><path class="cls-74" d="M1080,978.88v-64a120.22,120.22,0,0,0-3.29,16.06A118.63,118.63,0,0,0,1080,978.88Z"/><path class="cls-74" d="M1046.8,1139.84a35,35,0,0,0,11.86,31.23,61,61,0,0,0-14.51,79.3A60.9,60.9,0,0,0,1073.27,1354c-.78,1.24-1.54,2.5-2.25,3.81a60.84,60.84,0,0,0-5.51,43.59,42.14,42.14,0,0,0-33.2,67.6,61,61,0,0,0,13.35,95.93,68.78,68.78,0,0,0-9.42,51.34A99.53,99.53,0,0,0,962.94,1745a33.06,33.06,0,0,0-33.68,34.17,44.84,44.84,0,0,0-28.92,47,60.45,60.45,0,0,0-50.76,28.65,60.08,60.08,0,0,0-53.45.51,24.11,24.11,0,0,0-41.6,5.51,41.64,41.64,0,0,0-64.68,1.74,60.27,60.27,0,0,0-94,7.79,34.72,34.72,0,0,0-60,19c-.1.76-.14,1.52-.19,2.28a67.83,67.83,0,0,0-84.75,28.4H1080V1109.64A34.82,34.82,0,0,0,1046.8,1139.84Z"/><path class="cls-74" d="M429,1917.18A117,117,0,0,0,383.1,1920h60A115.29,115.29,0,0,0,429,1917.18Z"/><path class="cls-75" d="M723.49,1486.68c-8.31-.59-16.4,2.55-24,6a281.47,281.47,0,0,0-31,16.35c-10.34,6.31-21.49,13.5-33.08,14.78l8.15,9.92,8.39,10.22,4.43,5.41a4.89,4.89,0,0,0,.67.82,5.41,5.41,0,0,0,4,1.18c3-.12,7.12-1.67,12-4.42a103.84,103.84,0,0,0,9.15-5.86A205.36,205.36,0,0,0,698.58,1528l1.36-1.22c3.65-3.24,7.41-6.74,11.23-10.48,5.26-5.15,10.65-10.74,16-16.69q4.35-4.8,8.37-9.55A34.14,34.14,0,0,0,723.49,1486.68Z"/><path class="cls-76" d="M770.66,1424.57a4,4,0,0,0-.87-.59l-.38-.26-9.35-6.37-9.35-6.37-9.35-6.36-9.35-6.37-.63-.43c-7.52,18.35-23.23,42.08-44.15,65.2-14.85,16.4-30.24,30.21-44.18,40.16a145.52,145.52,0,0,1-16.23,10.18l8.31,10.12.24.3c11.59-1.28,22.74-8.47,33.08-14.78a281.47,281.47,0,0,1,31-16.35c7.61-3.42,15.7-6.56,24-6a34.14,34.14,0,0,1,12.08,3.36q3.45-4.08,6.65-8.08c.85-1,1.69-2.11,2.51-3.16q4.21-5.4,7.89-10.54a204.8,204.8,0,0,0,11.4-17.63C771.47,1437.55,774.26,1427.87,770.66,1424.57Z"/><path class="cls-76" d="M691.2,1400.86q4.15-6.19,7.65-12.14Q695.36,1394.66,691.2,1400.86Z"/><path class="cls-77" d="M513.66,1502.86c16.12,22.71,30.29,47.17,38.3,73.88,5.58,18.61,8,38.44,6,57.69l4.74,4.07,9,7.74,9,7.74,9,7.74,9,7.74.69.59h0a94.11,94.11,0,0,0,16.41-25.27,87.45,87.45,0,0,0,7.23-29,78.21,78.21,0,0,0-3.55-29.62,72.9,72.9,0,0,0-7.09-15.43c-.57-.94-1.17-1.87-1.79-2.79l-6.17-9.14-8-11.84-8-11.83-8-11.83-8-11.84-8-11.83-8-11.83-1.26-1.87L399.53,1368.12q-12.87-9.75-25.39-20.47l-7,7.77C421.08,1399.58,473.38,1446.1,513.66,1502.86Z"/><path class="cls-78" d="M342.4,1427.33a72.59,72.59,0,0,0,5.78,18.65,69.66,69.66,0,0,0,16.34,22.18c.52.48,1,1,1.57,1.43l7.42,6.37,9,7.74,9,7.74,9,7.74,9,7.74,9,7.74,9,7.74,9,7.74,9,7.74,9,7.74,9,7.74,9,7.74,9,7.74,9,7.74,9,7.74,9,7.74,9,7.74,9,7.74,9,7.74,9,7.74,9,7.74,4.27,3.67c2-19.25-.4-39.08-6-57.69-8-26.71-22.18-51.17-38.3-73.88-40.28-56.76-92.58-103.28-146.55-147.44l-4.22,4.65a86.43,86.43,0,0,0-9.5,12.68A79.41,79.41,0,0,0,342.4,1427.33Z"/><path class="cls-78" d="M714.22,1338l9.62,5.3,9.61,5.31,9.62,5.3,9.61,5.3,9.62,5.31,9.61,5.3,2,1.11c-1.12-24.4-8.78-48.86-20.21-70.58-18.32-34.8-45.54-63.9-72.43-92.53l-80.39-85.63a80.69,80.69,0,0,0-20.44,6.6,81.39,81.39,0,0,0-12.85,7.7,84.4,84.4,0,0,0-12.88,11.61l-1.33,1.47-9.91,11q11.79,11.52,22.66,23.49l131.35,144.76,7.11,3.92Z"/><path class="cls-77" d="M636.21,1124.53a71.7,71.7,0,0,0-10.31-2.5,73.62,73.62,0,0,0-10.7-1,75.24,75.24,0,0,0-11.1.65q-1.61.21-3.21.48l80.39,85.63c26.89,28.63,54.11,57.73,72.43,92.53,11.43,21.72,19.09,46.18,20.21,70.58l7.61,4.2,2.38,1.31a72.77,72.77,0,0,0,7.36,3.51c30.64,12.61,67.83,3.12,92.7-24.35l-69.7-67.84-8.8-8.57-8.81-8.57-8.8-8.57-8.8-8.56-8.8-8.57-8.8-8.57-8.8-8.56-8.81-8.57-8.8-8.57-8.8-8.56-8.8-8.57-8.8-8.57-8.8-8.56-8.8-8.57-8.81-8.57-8.8-8.56-8.8-8.57-1.17-1.14a71.26,71.26,0,0,0-7.84-6.59,69.23,69.23,0,0,0-19.42-9.87ZM842.47,1358.1a9.59,9.59,0,1,1-9.29,9.82A9.56,9.56,0,0,1,842.47,1358.1Z"/><path class="cls-75" d="M584.32,1507.93l9.2,7,4.06,3.07a11.08,11.08,0,0,0,5.57,2.18,27.55,27.55,0,0,0,11.3-1.46,74,74,0,0,0,12.25-5.25l.12-.07a145.52,145.52,0,0,0,16.23-10.18,83.33,83.33,0,0,1-4.72-20,187.74,187.74,0,0,1-.58-20.56c-23.45,21.46-46.07,35.79-61.57,39.1Z"/><path class="cls-76" d="M638.33,1483.23a83.33,83.33,0,0,0,4.72,20c13.94-10,29.33-23.76,44.18-40.16,20.92-23.12,36.63-46.85,44.15-65.2.86-2.12,1.62-4.15,2.26-6.12a56.62,56.62,0,0,0,2.24-9c1-6.48.2-11.52-2.7-14.59l-3.6-4-8.58-9.45-5.87-6.47a55.48,55.48,0,0,1-1.74,8.55,104.26,104.26,0,0,1-5.61,15c-.81,1.79-1.69,3.61-2.62,5.47-1.87,3.71-4,7.56-6.31,11.51s-4.88,8-7.65,12.14a338,338,0,0,1-30.09,38.27c-7.72,8.54-15.59,16.43-23.36,23.54A187.74,187.74,0,0,0,638.33,1483.23Z"/><path class="cls-79" d="M399.53,1368.12l155.73,117.82,1.45,1.1,9.2,7,9.2,7,1.07.81c15.5-3.31,38.12-17.64,61.57-39.1.07-9.39.1-18.77-1.93-27.9-4.19-18.78-16.59-34.48-28.82-49.27q-35.57-43-73.39-84c-.46.53-.9,1.07-1.37,1.59A88.56,88.56,0,0,1,442.37,1329a89.52,89.52,0,0,1-47.53-164.67q-23.32-21-47.24-41.32c-4.41,5.55-9.08,11.08-14,16.53-27,29.79-56.81,52-81.93,64.16,35.17,56.21,76.89,104.87,122.48,143.94Q386.65,1358.38,399.53,1368.12Z"/><path class="cls-80" d="M347.6,1123q23.92,20.3,47.24,41.32a88.75,88.75,0,0,1,72.2-10.87,88.32,88.32,0,0,1,59.26,23.27,89.76,89.76,0,0,1,7.31,124.76q37.8,41,73.39,84c12.23,14.79,24.63,30.49,28.82,49.27,2,9.13,2,18.51,1.93,27.9,7.77-7.11,15.64-15,23.36-23.54a338,338,0,0,0,30.09-38.27q4.15-6.19,7.65-12.14c2.33-4,4.44-7.8,6.31-11.51.93-1.86,1.81-3.68,2.62-5.47a104.26,104.26,0,0,0,5.61-15,55.48,55.48,0,0,0,1.74-8.55l-2.71-3-8.58-9.45-6.35-7L566.14,1184q-10.86-12-22.66-23.49l-3-2.92q-4.37-4.2-8.86-8.33t-8.93-8q-4.44-3.93-9-7.78c-3-2.53-6-5-9.06-7.51s-6.05-4.87-9.13-7.28-6.09-4.72-9.18-7-6.13-4.55-9.24-6.8-6.17-4.42-9.3-6.59l-1.31-.91a660.34,660.34,0,0,0-77-45.81C381.49,1073,367.24,1098.25,347.6,1123Z"/><path class="cls-75" d="M333.59,1139.55c4.93-5.45,9.6-11,14-16.53A2091.82,2091.82,0,0,0,160.32,981.49a723.47,723.47,0,0,0,91.34,222.22C276.78,1191.54,306.63,1169.34,333.59,1139.55Z"/><path class="cls-76" d="M347.6,1123c19.64-24.77,33.89-50,41.8-71.51A714.42,714.42,0,0,0,160.2,981h0l.12.53A2091.82,2091.82,0,0,1,347.6,1123Z"/><path d="M526.3,1176.74A88.32,88.32,0,0,0,467,1153.47a88.46,88.46,0,0,1,35.78,20,89.78,89.78,0,0,1,5.93,126.35A88.49,88.49,0,0,1,442.37,1329a88.56,88.56,0,0,0,89.87-25.92c.47-.52.91-1.06,1.37-1.59A89.76,89.76,0,0,0,526.3,1176.74Z"/><path class="cls-75" d="M448.73,1316.39a76.33,76.33,0,0,0,9.23-8.73,69,69,0,0,1-53.34-9.92,71.65,71.65,0,0,1-8.37-6.57,69.75,69.75,0,0,1,21.3-116.5,69.16,69.16,0,0,1,35.25-4.11,158.27,158.27,0,0,0-19-19.94,88.82,88.82,0,0,0-56.71,28.77,89.78,89.78,0,0,0,5.94,126.35,88.38,88.38,0,0,0,47.1,22.37A115.65,115.65,0,0,0,448.73,1316.39Z"/><path class="cls-76" d="M508.75,1299.77a89.78,89.78,0,0,0-5.93-126.35,88.49,88.49,0,0,0-69-22.8,158.27,158.27,0,0,1,19,19.94,69.26,69.26,0,0,1,47.68,30.06,70,70,0,0,1-6.22,85.9,69.11,69.11,0,0,1-36.3,21.14,76.33,76.33,0,0,1-9.23,8.73,115.65,115.65,0,0,1-18.56,11.72,89,89,0,0,0,78.58-28.34Z"/><path class="cls-81" d="M417.55,1174.67a69.33,69.33,0,0,0-12.59,6.52l-.34,116.55a69.14,69.14,0,0,0,12.55,6.61Z"/><path class="cls-82" d="M435.87,1170.21a69.12,69.12,0,0,0-18.32,4.46l-.38,129.68a69,69,0,0,0,18.29,4.56Z"/><path class="cls-82" d="M405,1181.19a70,70,0,0,0-8.71,110,71.65,71.65,0,0,0,8.37,6.57Z"/><path class="cls-81" d="M500.26,1278.87a70.09,70.09,0,0,0,.22-78.25Z"/><path class="cls-82" d="M470.33,1303.66a69.32,69.32,0,0,0,29.93-24.79l.22-78.25a69.4,69.4,0,0,0-29.78-25Z"/><path class="cls-81" d="M435.87,1170.21l-.41,138.7a69.3,69.3,0,0,0,34.87-5.25l.37-128a69.38,69.38,0,0,0-34.83-5.45Z"/><path class="cls-71" d="M810.82,557a29.6,29.6,0,0,0,7.5,6.33,29.46,29.46,0,0,0,15,4.11c.67,0,1.33,0,2-.07a29.23,29.23,0,0,0,9.46-2.23,29.63,29.63,0,1,0-34.07-8.32Z"/><path class="cls-71" d="M815.05,870.54A9.45,9.45,0,0,0,820.3,869a9.7,9.7,0,0,0-5.23-17.83,9,9,0,0,0-1.28.1,9.69,9.69,0,0,0-4.36,17.46A9.51,9.51,0,0,0,815.05,870.54Z"/><path class="cls-71" d="M358,1669.72h0a15.35,15.35,0,0,0-12.51,6.43,15.59,15.59,0,0,0-2.94,9.07,16.06,16.06,0,0,0,.16,2.09,15.52,15.52,0,0,0,8,11.62,15.35,15.35,0,0,0,10.58,1.44,15.52,15.52,0,0,0,6.71-26.89A15.29,15.29,0,0,0,358,1669.72Z"/><path class="cls-71" d="M129,1832.76a24.36,24.36,0,1,0,24.38-24.47A24.42,24.42,0,0,0,129,1832.76Z"/><path class="cls-72" d="M869.48,1022.62a35.72,35.72,0,0,0-10.34-1.26h-.29a35.86,35.86,0,0,0-24.61,10.95,36.2,36.2,0,0,0,7.8,56.44,35.54,35.54,0,0,0,10,3.94,36,36,0,0,0,8.91.9c.61,0,1.22,0,1.82-.09a36.18,36.18,0,0,0,16.6-66.51A35.63,35.63,0,0,0,869.48,1022.62Z"/><path class="cls-72" d="M1035.49,378.46A32.24,32.24,0,0,0,1080,407.67v-60a32.25,32.25,0,0,0-44.51,30.82Z"/><path class="cls-72" d="M735.66,1613.34a16.93,16.93,0,1,0,8.82-15.32A16.9,16.9,0,0,0,735.66,1613.34Z"/><path class="cls-72" d="M833.18,1367.92a9.53,9.53,0,1,0,9.29-9.82A9.56,9.56,0,0,0,833.18,1367.92Z"/><path class="cls-72" d="M666.74,1616l-.45,0a9.59,9.59,0,0,0,.47,19.17,9.61,9.61,0,0,0,9.3-9.82,9.88,9.88,0,0,0-.24-1.9A9.53,9.53,0,0,0,666.74,1616Z"/><path class="cls-74" d="M319.77,1821.74a26.43,26.43,0,0,0-25,20.24,27,27,0,0,0-.75,7,26.41,26.41,0,1,0,43.22-21.11A26.18,26.18,0,0,0,319.77,1821.74Z"/><path class="cls-74" d="M582.66,1801.93a11,11,0,1,0-10.72,11.33A11,11,0,0,0,582.66,1801.93Z"/><path class="cls-74" d="M1009.38,925.43a26.54,26.54,0,0,0-1.3-53.07c-.61,0-1.21.06-1.8.11a26.55,26.55,0,0,0,3.1,53Z"/><path class="cls-74" d="M924.89,711.43a9.58,9.58,0,1,0,9.76,9.34A9.56,9.56,0,0,0,924.89,711.43Z"/><path class="cls-74" d="M1020.65,608a13.2,13.2,0,1,0-12.87,13.6A13.23,13.23,0,0,0,1020.65,608Z"/><path class="cls-74" d="M825.5,1682.32a36.75,36.75,0,0,0-35.62,33.57,38.85,38.85,0,0,0-.14,4.19,36.67,36.67,0,1,0,43.18-37.19A35.7,35.7,0,0,0,825.5,1682.32Z"/><path class="cls-74" d="M949,1571.56A16.14,16.14,0,1,0,964.69,1555,16.18,16.18,0,0,0,949,1571.56Z"/><path class="cls-74" d="M946.88,1486.8a12.54,12.54,0,1,0-12.77-12.22A12.5,12.5,0,0,0,946.88,1486.8Z"/></g></g></svg>